<svg width="12" height="6" viewBox="0 0 12 6" fill="none" xmlns="http://www.w3.org/2000/svg">
<g clip-path="url(#clip0_1512_29)">
<path d="M6.38283 5.76044C6.49911 5.75033 6.60919 5.70359 6.69721 5.62693L11.7963 1.21687C11.8538 1.17022 11.9012 1.1125 11.9358 1.04713C11.9705 0.981769 11.9916 0.910099 11.998 0.836399C12.0043 0.762699 11.9958 0.68847 11.9729 0.618137C11.9499 0.547804 11.9131 0.482807 11.8645 0.427011C11.816 0.371214 11.7567 0.32576 11.6902 0.29336C11.6237 0.26096 11.5513 0.242274 11.4774 0.238416C11.4036 0.234558 11.3297 0.245613 11.2602 0.270909C11.1906 0.296207 11.1269 0.335234 11.0728 0.385668L6.33545 4.48135L1.59808 0.385669C1.54396 0.335234 1.48025 0.296199 1.41074 0.270902C1.34122 0.245605 1.26733 0.234559 1.19345 0.238417C1.11958 0.242274 1.04724 0.260961 0.980734 0.293361C0.914233 0.325761 0.854931 0.371214 0.806363 0.427012C0.757794 0.482808 0.720951 0.547805 0.698027 0.618138C0.675104 0.688471 0.666569 0.7627 0.672932 0.8364C0.679295 0.9101 0.700426 0.98177 0.735064 1.04713C0.769703 1.1125 0.81714 1.17022 0.874553 1.21687L5.97368 5.62693C6.02944 5.67548 6.0944 5.71232 6.16469 5.73525C6.23498 5.75819 6.30916 5.76675 6.38283 5.76044Z" fill="#6C6C6C"/>
</g>
<defs>
<clipPath id="clip0_1512_29">
<rect width="5.52479" height="11.3291" fill="white" transform="translate(12 0.237549) rotate(90)"/>
</clipPath>
</defs>
</svg>
