<svg width="14" height="8" viewBox="0 0 14 8" fill="none" xmlns="http://www.w3.org/2000/svg">
<path d="M6.94661 7.28687C6.81603 7.27465 6.69241 7.21812 6.59357 7.12541L0.867379 1.79208C0.802906 1.73566 0.749634 1.66585 0.710737 1.5868C0.671839 1.50776 0.648111 1.42108 0.640966 1.33195C0.633821 1.24282 0.643405 1.15305 0.669147 1.068C0.69489 0.982938 0.736263 0.904334 0.790805 0.836855C0.845346 0.769377 0.91194 0.714407 0.986619 0.675224C1.0613 0.636041 1.14254 0.613442 1.22549 0.608777C1.30845 0.604112 1.39143 0.617481 1.4695 0.648074C1.54756 0.678667 1.61911 0.725864 1.67988 0.786858L6.99982 5.73999L12.3198 0.786858C12.3805 0.725864 12.4521 0.678657 12.5301 0.648064C12.6082 0.61747 12.6912 0.604112 12.7741 0.608777C12.8571 0.613442 12.9383 0.636041 13.013 0.675224C13.0877 0.714407 13.1543 0.769377 13.2088 0.836855C13.2634 0.904334 13.3048 0.982938 13.3305 1.068C13.3562 1.15305 13.3658 1.24282 13.3587 1.33195C13.3515 1.42108 13.3278 1.50776 13.2889 1.5868C13.25 1.66585 13.1967 1.73566 13.1323 1.79208L7.40607 7.12541C7.34345 7.18413 7.27051 7.22867 7.19157 7.25641C7.11264 7.28415 7.02934 7.29451 6.94661 7.28687Z" fill="#EFF312"/>
</svg>
