<svg width="19" height="20" viewBox="0 0 19 20" fill="none" xmlns="http://www.w3.org/2000/svg">
<path d="M9.5 0.5C4.26161 0.5 0 4.76161 0 10C0 15.2384 4.26161 19.5 9.5 19.5C14.7384 19.5 19 15.2384 19 10C19 4.76161 14.7384 0.5 9.5 0.5ZM9.5 18.1429C5.0101 18.1429 1.35714 14.4899 1.35714 10C1.35714 5.5101 5.0101 1.85714 9.5 1.85714C13.9899 1.85714 17.6429 5.5101 17.6429 10C17.6429 14.4899 13.9899 18.1429 9.5 18.1429ZM14.25 10C14.25 10.3747 13.9462 10.6786 13.5714 10.6786H9.5C9.12526 10.6786 8.82143 10.3747 8.82143 10V4.57143C8.82143 4.19669 9.12526 3.89286 9.5 3.89286C9.87474 3.89286 10.1786 4.19669 10.1786 4.57143V9.32143H13.5714C13.9462 9.32143 14.25 9.62526 14.25 10Z" fill="#B6B6B6"/>
</svg>
