<svg width="42" height="32" viewBox="0 0 42 32" fill="none" xmlns="http://www.w3.org/2000/svg">
<path d="M36.7821 32L24.0541 19.5154L21.9134 21.624C21.6588 21.8747 21.3294 22 20.9999 22C20.6705 22 20.3411 21.8747 20.0864 21.624L17.9464 19.5154L5.21777 32H36.7821Z" fill="url(#paint0_linear_554_1150)"/>
<path d="M21 18.8093L40.0943 0H1.90576L21 18.8093Z" fill="url(#paint1_linear_554_1150)"/>
<path d="M40.6874 32.0001C41.4119 32.0001 41.9999 31.4027 41.9999 30.6667V1.8374L25.9395 17.6581L40.5614 32.0001H40.6874Z" fill="url(#paint2_linear_554_1150)"/>
<path d="M1.3125 32.0001H1.4385L16.0604 17.6581L0 1.8374V30.6667C0 31.4027 0.588 32.0001 1.3125 32.0001Z" fill="url(#paint3_linear_554_1150)"/>
<defs>
<linearGradient id="paint0_linear_554_1150" x1="9.05027" y1="20.114" x2="30.4433" y2="45.1488" gradientUnits="userSpaceOnUse">
<stop stop-color="#EFF312"/>
<stop offset="1" stop-color="white"/>
</linearGradient>
<linearGradient id="paint1_linear_554_1150" x1="6.54256" y1="0.901817" x2="39.1093" y2="31.5065" gradientUnits="userSpaceOnUse">
<stop stop-color="#EFF312"/>
<stop offset="1" stop-color="white"/>
</linearGradient>
<linearGradient id="paint2_linear_554_1150" x1="27.8895" y1="3.28356" x2="52.2042" y2="9.27609" gradientUnits="userSpaceOnUse">
<stop stop-color="#EFF312"/>
<stop offset="1" stop-color="white"/>
</linearGradient>
<linearGradient id="paint3_linear_554_1150" x1="1.95004" y1="3.28356" x2="26.2648" y2="9.27609" gradientUnits="userSpaceOnUse">
<stop stop-color="#EFF312"/>
<stop offset="1" stop-color="white"/>
</linearGradient>
</defs>
</svg>
