<svg width="63" height="63" viewBox="0 0 63 63" fill="none" xmlns="http://www.w3.org/2000/svg">
<circle cx="31.5" cy="31.5" r="31.5" fill="#EFF312"/>
<path d="M46.2555 26.6155H45.5232V23.9521C45.5232 17.3601 39.6286 12 32.3794 12H30.3657C23.1165 12 17.2219 17.3601 17.2219 23.9521V26.6155H16.4897C15.0984 26.6155 14 27.6476 14 28.8794V35.1052C14 36.3703 15.135 37.3691 16.4897 37.3691H20.334V23.9188C20.334 18.8916 24.8373 14.7633 30.4024 14.7633H32.416C37.9445 14.7633 42.4844 18.8583 42.4844 23.9188V37.3691H46.3287C47.72 37.3691 48.8184 36.337 48.8184 35.1052V28.8794C48.7451 27.6476 47.6101 26.6155 46.2555 26.6155Z" fill="#3A3A3A"/>
<path d="M31.5764 15.707C25.9358 15.707 21.3652 22.1135 21.3652 30.0157C21.3652 30.4411 21.3772 30.8302 21.4008 31.2127C21.4008 31.2127 21.4886 32.6654 21.8185 34.2478C22.7558 38.7426 24.8134 43.0277 24.8134 43.0277C26.1424 45.7939 27.2505 47.2864 28.7501 49.3043C30.0741 51.086 30.7626 51.7346 31.5764 51.6978C32.3902 51.7342 33.0786 51.086 34.4026 49.3043C35.9023 47.2864 37.0107 45.7935 38.3394 43.0277C38.3394 43.0277 40.3967 38.7426 41.3342 34.2478C41.6642 32.6654 41.752 31.2127 41.752 31.2127C41.7756 30.8302 41.7875 30.4415 41.7875 30.0157C41.7875 22.1135 37.2169 15.707 31.5764 15.707ZM26.3451 41.2967C24.4324 40.2003 23.5906 36.886 23.5906 36.886C23.5906 36.886 25.8495 35.3491 27.7619 36.4455C29.6745 37.5419 30.5164 40.8561 30.5164 40.8561C30.5164 40.8561 28.2577 42.3927 26.3451 41.2967ZM36.8077 41.2967C34.895 42.3931 32.6364 40.8561 32.6364 40.8561C32.6364 40.8561 33.4783 37.5415 35.3909 36.4455C37.3036 35.3491 39.5622 36.886 39.5622 36.886C39.5622 36.886 38.7201 40.2003 36.8077 41.2967Z" fill="#3A3A3A"/>
</svg>
