<svg width="43" height="43" viewBox="0 0 43 43" fill="none" xmlns="http://www.w3.org/2000/svg">
<circle cx="21.5" cy="21.5" r="21.5" fill="#EFF312"/>
<path d="M31.5713 18.1661H31.0715V16.3482C31.0715 11.8489 27.0482 8.19043 22.1003 8.19043H20.7259C15.778 8.19043 11.7547 11.8489 11.7547 16.3482V18.1661H11.255C10.3054 18.1661 9.55566 18.8705 9.55566 19.7113V23.9606C9.55566 24.8241 10.3303 25.5058 11.255 25.5058H13.8788V16.3255C13.8788 12.8942 16.9525 10.0765 20.7509 10.0765H22.1253C25.8987 10.0765 28.9974 12.8715 28.9974 16.3255V25.5058H31.6213C32.5709 25.5058 33.3206 24.8014 33.3206 23.9606V19.7113C33.2706 18.8705 32.4959 18.1661 31.5713 18.1661Z" fill="#3A3A3A"/>
<path d="M21.5525 10.7207C17.7026 10.7207 14.583 15.0934 14.583 20.487C14.583 20.7773 14.5912 21.0428 14.6073 21.3039C14.6073 21.3039 14.6672 22.2955 14.8924 23.3755C15.5321 26.4434 16.9365 29.3682 16.9365 29.3682C17.8436 31.2562 18.5999 32.2748 19.6235 33.6522C20.5272 34.8683 20.9971 35.3109 21.5525 35.2858C22.108 35.3106 22.5779 34.8683 23.4816 33.6522C24.5051 32.2748 25.2617 31.2559 26.1685 29.3682C26.1685 29.3682 27.5728 26.4434 28.2127 23.3755C28.4378 22.2955 28.4978 21.3039 28.4978 21.3039C28.5139 21.0428 28.522 20.7776 28.522 20.487C28.522 15.0934 25.4024 10.7207 21.5525 10.7207ZM17.982 28.1867C16.6765 27.4383 16.1019 25.1762 16.1019 25.1762C16.1019 25.1762 17.6437 24.1272 18.949 24.8755C20.2544 25.6239 20.829 27.886 20.829 27.886C20.829 27.886 19.2874 28.9347 17.982 28.1867ZM25.1231 28.1867C23.8176 28.935 22.276 27.886 22.276 27.886C22.276 27.886 22.8506 25.6236 24.1561 24.8755C25.4616 24.1272 27.0031 25.1762 27.0031 25.1762C27.0031 25.1762 26.4284 27.4383 25.1231 28.1867Z" fill="#3A3A3A"/>
</svg>
