<svg width="213" height="158" viewBox="0 0 213 158" fill="none" xmlns="http://www.w3.org/2000/svg">
<path d="M126.363 87.122L96.7872 67.7631C91.8673 71.3807 86.686 75.0142 81.6187 78.4119C76.3637 81.9355 71.035 85.3492 65.7466 88.4173L72.4262 123.129L75.96 141.789C76.4217 144.506 80.1879 144.848 83.7872 142.913C93.1976 137.877 102.876 132.025 112.823 125.355C122.77 118.685 131.859 111.954 140.091 105.16C143.435 102.439 144.361 98.9508 142.023 97.4919L126.363 87.122Z" fill="url(#paint0_linear_1512_594)"/>
<path d="M58.5387 50.5731C68.2727 44.9531 74.4688 37.5098 71.7784 32.8499C66.1584 23.1158 53.7445 19.7895 44.0104 25.4095C34.2764 31.0294 30.9501 43.4433 36.57 53.1774C39.3202 57.9409 48.8046 56.1931 58.5387 50.5731Z" fill="#7927FF"/>
<path d="M75.4779 27.5385C76.0597 28.3071 76.4782 29.032 76.9565 29.8604C81.4405 37.627 75.3609 47.9026 61.5882 55.8542C47.712 63.8657 35.9365 64.0368 31.3927 56.1667C30.9144 55.3382 30.4959 54.6134 30.1212 53.7251C19.2374 64.2891 13.9905 75.0505 17.8169 81.6779C23.6162 91.7227 48.0147 88.5439 72.3499 74.494C96.5815 60.5038 111.637 40.9037 105.838 30.859C102.011 24.2316 90.0684 23.3948 75.4779 27.5385ZM45.6764 76.3629C43.5017 77.6184 40.9641 77.2886 40.0673 75.7352C39.1107 74.0784 40.1537 71.8194 42.3283 70.5638C44.5029 69.3083 47.0406 69.6381 47.9374 71.1914C48.8342 72.7447 47.851 75.1073 45.6764 76.3629ZM68.1648 67.2452C65.9901 68.5007 63.4525 68.1709 62.5557 66.6176C61.5991 64.9607 62.6421 62.7017 64.8167 61.4462C66.9913 60.1906 69.529 60.5205 70.4258 62.0738C71.3226 63.6271 70.3394 65.9897 68.1648 67.2452ZM87.4086 52.2687C85.234 53.5242 82.6964 53.1944 81.7996 51.6411C80.843 49.9842 81.8859 47.7252 84.0606 46.4697C86.2352 45.2142 88.7729 45.544 89.6697 47.0973C90.5665 48.6506 89.5833 51.0132 87.4086 52.2687Z" fill="#7927FF"/>
<path d="M73.2466 117.106C71.9066 117.106 70.6124 116.954 69.3637 116.649C68.1151 116.345 67.0873 115.949 66.2803 115.461L68.0162 111.533C68.7775 111.974 69.6226 112.332 70.5514 112.606C71.4955 112.865 72.4091 112.995 73.2923 112.995C73.81 112.995 74.2135 112.964 74.5028 112.903C74.8074 112.827 75.0282 112.728 75.1652 112.606C75.3023 112.469 75.3708 112.309 75.3708 112.127C75.3708 111.837 75.2109 111.609 74.8911 111.442C74.5714 111.274 74.145 111.137 73.6121 111.03C73.0944 110.909 72.5233 110.787 71.899 110.665C71.2747 110.528 70.6428 110.353 70.0033 110.14C69.379 109.926 68.8003 109.645 68.2674 109.295C67.7497 108.944 67.3309 108.487 67.0112 107.924C66.6914 107.345 66.5315 106.63 66.5315 105.777C66.5315 104.787 66.8056 103.889 67.3538 103.082C67.9172 102.26 68.747 101.605 69.8434 101.118C70.955 100.63 72.333 100.387 73.9775 100.387C75.0586 100.387 76.1245 100.501 77.1752 100.729C78.2258 100.958 79.1699 101.308 80.0074 101.78L78.3857 105.686C77.5939 105.29 76.825 104.993 76.0788 104.795C75.3479 104.597 74.6323 104.498 73.9318 104.498C73.4141 104.498 73.003 104.544 72.6985 104.635C72.3939 104.726 72.1731 104.848 72.0361 105C71.9143 105.153 71.8534 105.32 71.8534 105.503C71.8534 105.777 72.0132 105.998 72.333 106.165C72.6528 106.318 73.0715 106.447 73.5892 106.554C74.1222 106.66 74.7008 106.774 75.3251 106.896C75.9646 107.018 76.5966 107.186 77.2209 107.399C77.8452 107.612 78.4162 107.894 78.9339 108.244C79.4668 108.594 79.8932 109.051 80.213 109.614C80.5327 110.178 80.6926 110.878 80.6926 111.716C80.6926 112.69 80.4109 113.589 79.8475 114.411C79.2994 115.218 78.4771 115.873 77.3808 116.375C76.2844 116.862 74.9064 117.106 73.2466 117.106Z" fill="white"/>
<path d="M87.253 116.741L82.1367 100.752H87.687L91.8211 114.251H89.0346L93.4199 100.752H98.3763L102.465 114.251H99.7924L104.109 100.752H109.226L104.109 116.741H98.3307L94.9959 105.686H96.5491L93.0317 116.741H87.253Z" fill="white"/>
<path d="M109.02 116.741L116.01 100.752H121.309L128.298 116.741H122.725L117.563 103.31H119.664L114.502 116.741H109.02ZM113.177 113.954L114.548 110.071H121.902L123.273 113.954H113.177Z" fill="white"/>
<path d="M130.072 116.741V100.752H137.769C139.261 100.752 140.548 100.996 141.629 101.483C142.725 101.97 143.57 102.671 144.164 103.584C144.758 104.483 145.055 105.549 145.055 106.782C145.055 108.015 144.758 109.081 144.164 109.98C143.57 110.878 142.725 111.579 141.629 112.081C140.548 112.568 139.261 112.812 137.769 112.812H133.064L135.462 110.505V116.741H130.072ZM135.462 111.099L133.064 108.655H137.426C138.172 108.655 138.721 108.487 139.071 108.152C139.436 107.817 139.619 107.361 139.619 106.782C139.619 106.203 139.436 105.747 139.071 105.412C138.721 105.077 138.172 104.909 137.426 104.909H133.064L135.462 102.465V111.099Z" fill="white"/>
<path d="M156.342 117.106C155.048 117.106 153.845 116.9 152.733 116.489C151.637 116.078 150.685 115.5 149.878 114.753C149.071 113.992 148.439 113.101 147.982 112.081C147.541 111.061 147.32 109.949 147.32 108.746C147.32 107.528 147.541 106.417 147.982 105.412C148.439 104.391 149.071 103.508 149.878 102.762C150.685 102.001 151.637 101.415 152.733 101.003C153.845 100.592 155.048 100.387 156.342 100.387C157.651 100.387 158.854 100.592 159.951 101.003C161.047 101.415 161.999 102.001 162.806 102.762C163.613 103.508 164.237 104.391 164.679 105.412C165.136 106.417 165.364 107.528 165.364 108.746C165.364 109.949 165.136 111.061 164.679 112.081C164.237 113.101 163.613 113.992 162.806 114.753C161.999 115.5 161.047 116.078 159.951 116.489C158.854 116.9 157.651 117.106 156.342 117.106ZM156.342 112.743C156.844 112.743 157.309 112.652 157.735 112.469C158.177 112.287 158.557 112.028 158.877 111.693C159.212 111.343 159.471 110.924 159.654 110.437C159.837 109.934 159.928 109.371 159.928 108.746C159.928 108.122 159.837 107.566 159.654 107.079C159.471 106.576 159.212 106.158 158.877 105.823C158.557 105.473 158.177 105.206 157.735 105.023C157.309 104.841 156.844 104.749 156.342 104.749C155.839 104.749 155.367 104.841 154.926 105.023C154.499 105.206 154.119 105.473 153.784 105.823C153.464 106.158 153.213 106.576 153.03 107.079C152.847 107.566 152.756 108.122 152.756 108.746C152.756 109.371 152.847 109.934 153.03 110.437C153.213 110.924 153.464 111.343 153.784 111.693C154.119 112.028 154.499 112.287 154.926 112.469C155.367 112.652 155.839 112.743 156.342 112.743Z" fill="white"/>
<path d="M168.234 116.741V100.752H172.665L180.796 110.482H178.741V100.752H183.994V116.741H179.563L171.432 107.01H173.487V116.741H168.234Z" fill="white"/>
<path d="M195.23 116.74L202.357 106.782L202.334 110.551L195.436 100.752H201.489L205.509 106.69L202.928 106.713L206.856 100.752H212.658L205.76 110.345V106.599L213 116.74H206.833L202.814 110.528L205.303 110.505L201.375 116.74H195.23Z" fill="white"/>
<path d="M187.832 116.74V100.752H193.222V116.74H187.832Z" fill="#EFF312"/>
<defs>
<linearGradient id="paint0_linear_1512_594" x1="68.3787" y1="90.6031" x2="146.019" y2="131.51" gradientUnits="userSpaceOnUse">
<stop stop-color="#7927FF"/>
<stop offset="1" stop-color="#232323" stop-opacity="0"/>
</linearGradient>
</defs>
</svg>
