<svg width="101" height="109" viewBox="0 0 101 109" fill="none" xmlns="http://www.w3.org/2000/svg">
<path d="M19.973 72.0987C26.7419 72.0987 32.2292 66.6086 32.2292 59.8362C32.2292 53.0638 26.7419 47.5737 19.973 47.5737C13.2041 47.5737 7.7168 53.0638 7.7168 59.8362C7.7168 66.6086 13.2041 72.0987 19.973 72.0987Z" fill="url(#paint0_linear_1581_621)"/>
<path d="M34.7258 80.3877C32.3426 77.322 28.5977 75.5054 24.5123 75.5054H15.3201C8.73812 75.5054 3.17744 80.3877 2.38306 86.9731L1.13475 97.5325C1.02126 98.895 1.81565 100.257 3.17744 100.485C8.51115 101.62 14.0718 102.188 19.8595 102.188C22.2426 102.188 24.5123 102.074 26.7819 101.847L27.9168 92.4231C28.7112 87.5408 31.2078 83.2262 34.7258 80.3877Z" fill="url(#paint1_linear_1581_621)"/>
<path d="M82.1615 72.0987C88.9304 72.0987 94.4176 66.6086 94.4176 59.8362C94.4176 53.0638 88.9304 47.5737 82.1615 47.5737C75.3926 47.5737 69.9053 53.0638 69.9053 59.8362C69.9053 66.6086 75.3926 72.0987 82.1615 72.0987Z" fill="url(#paint2_linear_1581_621)"/>
<path d="M99.6386 86.9731C98.8442 80.3877 93.2835 75.5054 86.7015 75.5054H77.5094C73.424 75.5054 69.679 77.4356 67.2959 80.3877C70.9274 83.3397 73.3105 87.5408 73.8779 92.4231L75.0127 101.847C77.2824 102.074 79.6656 102.188 81.9352 102.188C87.7229 102.188 93.397 101.62 98.6172 100.485C99.979 100.144 100.887 98.895 100.66 97.5325L99.6386 86.9731Z" fill="url(#paint3_linear_1581_621)"/>
<path d="M55.6068 81.6362H46.5281C39.9461 81.6362 34.3854 86.5185 33.5911 93.1039L32.3428 103.777C32.2293 105.139 33.0237 106.502 34.3855 106.729C39.6057 107.864 45.2798 108.432 51.0675 108.432C56.8551 108.432 62.5293 107.864 67.7495 106.729C69.1113 106.388 70.0192 105.139 69.7922 103.777L68.5439 93.1039C67.7495 86.5185 62.1888 81.6362 55.6068 81.6362Z" fill="url(#paint4_linear_1581_621)"/>
<path d="M51.0677 78.2301C57.8366 78.2301 63.3239 72.74 63.3239 65.9676C63.3239 59.1952 57.8366 53.7051 51.0677 53.7051C44.2988 53.7051 38.8115 59.1952 38.8115 65.9676C38.8115 72.74 44.2988 78.2301 51.0677 78.2301Z" fill="url(#paint5_linear_1581_621)"/>
<path d="M37.5631 45.5301H64.5721C67.0688 45.5301 69.2249 43.4864 69.2249 40.8749V21.6864C69.2249 19.1885 67.1822 17.0312 64.5721 17.0312H63.3238V10.7864C63.3238 5.10931 58.671 0.454102 52.9969 0.454102H49.2519C43.5778 0.454102 38.9249 5.10931 38.9249 10.7864V17.0312H37.6766C35.18 17.0312 33.0238 19.0749 33.0238 21.6864V40.8749C32.9103 43.4864 35.0665 45.5301 37.5631 45.5301ZM54.1317 37.3551C54.2452 37.8093 53.9047 38.377 53.3373 38.377H48.798C48.2306 38.377 47.8901 37.9229 48.0036 37.3551L49.4789 31.451C48.2306 30.8833 47.3227 29.6343 47.3227 28.1583C47.3227 26.1145 48.9115 24.5249 50.9542 24.5249C52.9969 24.5249 54.5856 26.1145 54.5856 28.1583C54.5856 29.6343 53.6778 30.8833 52.4294 31.451L54.1317 37.3551ZM45.053 10.8999C45.053 8.6291 46.8688 6.81243 49.1384 6.81243H52.8834C55.153 6.81243 56.9688 8.6291 56.9688 10.8999V17.1447H45.053V10.8999Z" fill="url(#paint6_linear_1581_621)"/>
<defs>
<linearGradient id="paint0_linear_1581_621" x1="7.7168" y1="47.5737" x2="32.5341" y2="47.8862" gradientUnits="userSpaceOnUse">
<stop stop-color="#7927FF"/>
<stop offset="1" stop-color="#8B1EA6"/>
</linearGradient>
<linearGradient id="paint1_linear_1581_621" x1="1.12402" y1="75.5054" x2="35.1405" y2="76.0451" gradientUnits="userSpaceOnUse">
<stop stop-color="#7927FF"/>
<stop offset="1" stop-color="#8B1EA6"/>
</linearGradient>
<linearGradient id="paint2_linear_1581_621" x1="69.9053" y1="47.5737" x2="94.7225" y2="47.8862" gradientUnits="userSpaceOnUse">
<stop stop-color="#7927FF"/>
<stop offset="1" stop-color="#8B1EA6"/>
</linearGradient>
<linearGradient id="paint3_linear_1581_621" x1="67.2959" y1="75.5054" x2="101.107" y2="76.0386" gradientUnits="userSpaceOnUse">
<stop stop-color="#7927FF"/>
<stop offset="1" stop-color="#8B1EA6"/>
</linearGradient>
<linearGradient id="paint4_linear_1581_621" x1="32.332" y1="81.6362" x2="70.2875" y2="82.3054" gradientUnits="userSpaceOnUse">
<stop stop-color="#7927FF"/>
<stop offset="1" stop-color="#8B1EA6"/>
</linearGradient>
<linearGradient id="paint5_linear_1581_621" x1="38.8115" y1="53.7051" x2="63.6288" y2="54.0176" gradientUnits="userSpaceOnUse">
<stop stop-color="#7927FF"/>
<stop offset="1" stop-color="#8B1EA6"/>
</linearGradient>
<linearGradient id="paint6_linear_1581_621" x1="33.0195" y1="0.454102" x2="69.6773" y2="0.825062" gradientUnits="userSpaceOnUse">
<stop stop-color="#7927FF"/>
<stop offset="1" stop-color="#8B1EA6"/>
</linearGradient>
</defs>
</svg>
