<svg width="24" height="21" viewBox="0 0 24 21" fill="none" xmlns="http://www.w3.org/2000/svg">
<path d="M15.0518 3.07354C15.3119 4.17627 16.3021 4.99775 17.4846 4.99775C18.865 4.99775 19.9842 3.87861 19.9842 2.49815C19.9842 1.11768 18.865 -0.00146484 17.4846 -0.00146484C16.2775 -0.00146484 15.2709 0.854004 15.0365 1.9919C13.015 2.20869 11.4365 3.92314 11.4365 6.00088C11.4365 6.00557 11.4365 6.00908 11.4365 6.01377C9.23809 6.10635 7.23066 6.73213 5.63691 7.72002C5.04512 7.26182 4.30215 6.98877 3.4959 6.98877C1.56113 6.98877 -0.00683594 8.55674 -0.00683594 10.4915C-0.00683594 11.8954 0.818164 13.1048 2.00996 13.6638C2.12598 17.7302 6.55684 21.0009 12.0072 21.0009C17.4576 21.0009 21.8943 17.7267 22.0045 13.6567C23.1869 13.0942 24.0049 11.8884 24.0049 10.4927C24.0049 8.55791 22.4369 6.98994 20.5021 6.98994C19.6994 6.98994 18.96 7.26065 18.3693 7.71533C16.7615 6.72041 14.7318 6.09463 12.5111 6.01143C12.5111 6.00791 12.5111 6.00557 12.5111 6.00205C12.5111 4.51377 13.6174 3.27861 15.0518 3.07588V3.07354ZM5.49629 12.7146C5.55488 11.4442 6.39863 10.4692 7.37949 10.4692C8.36035 10.4692 9.11035 11.4993 9.05176 12.7696C8.99316 14.0399 8.26074 14.5017 7.27871 14.5017C6.29668 14.5017 5.4377 13.9849 5.49629 12.7146ZM16.6361 10.4692C17.6182 10.4692 18.4619 11.4442 18.5193 12.7146C18.5779 13.9849 17.7178 14.5017 16.7369 14.5017C15.7561 14.5017 15.0225 14.0411 14.9639 12.7696C14.9053 11.4993 15.6541 10.4692 16.6361 10.4692ZM15.4689 15.6536C15.6529 15.6724 15.7701 15.8634 15.6986 16.0345C15.0951 17.4771 13.6701 18.4907 12.0072 18.4907C10.3443 18.4907 8.92051 17.4771 8.31582 16.0345C8.24434 15.8634 8.36152 15.6724 8.54551 15.6536C9.62363 15.5446 10.7896 15.4849 12.0072 15.4849C13.2248 15.4849 14.3896 15.5446 15.4689 15.6536Z" fill="#6C6C6C"/>
</svg>
