<svg width="103" height="84" viewBox="0 0 103 84" fill="none" xmlns="http://www.w3.org/2000/svg">
<path d="M61.2797 46.0461L47.1876 36.2152C44.766 38.1847 42.2177 40.166 39.7273 42.0215C37.1447 43.9457 34.5276 45.8129 31.934 47.4974L34.7731 65.7124L36.2718 75.5047C36.4644 76.9314 38.283 77.064 40.0465 75.998C44.657 73.2241 49.4065 70.016 54.2951 66.3737C59.1837 62.7315 63.6579 59.0673 67.7178 55.3813C69.367 53.9046 69.8545 52.0539 68.7394 51.3144L61.2797 46.0461Z" fill="url(#paint0_linear_691_2684)"/>
<path d="M28.1731 26.7403C32.9546 23.6597 36.0421 19.6643 34.791 17.2461C32.1775 12.1948 26.1986 10.6014 21.417 13.6821C16.6355 16.7627 14.8825 23.3375 17.496 28.3888C18.7749 30.8607 23.3915 29.8209 28.1731 26.7403Z" fill="#7927FF"/>
<path d="M36.8141 14.793C37.0857 15.1868 37.2792 15.5599 37.5003 15.9862C39.5731 19.9828 36.5282 25.4214 29.803 29.7438C23.0272 34.0987 17.352 34.3357 15.2516 30.2858C15.0305 29.8594 14.837 29.4864 14.6665 29.0276C9.30369 34.6769 6.65447 40.3585 8.42328 43.769C11.1041 48.9381 22.8949 46.9731 34.7778 39.3358C46.6101 31.731 54.0847 21.3139 51.4038 16.1448C49.635 12.7344 43.8904 12.4476 36.8141 14.793ZM21.9057 40.6458C20.8438 41.3283 19.6249 41.188 19.2103 40.3887C18.7681 39.536 19.2961 38.3441 20.3579 37.6616C21.4198 36.9791 22.6387 37.1194 23.0533 37.9187C23.4678 38.7181 22.9675 39.9633 21.9057 40.6458ZM32.8431 35.6056C31.7813 36.288 30.5624 36.1478 30.1478 35.3484C29.7056 34.4958 30.2336 33.3039 31.2954 32.6214C32.3573 31.9389 33.5762 32.0792 33.9908 32.8785C34.4053 33.6778 33.905 34.9231 32.8431 35.6056ZM42.2835 27.5487C41.2216 28.2311 40.0027 28.0909 39.5881 27.2915C39.1459 26.4389 39.6739 25.247 40.7358 24.5645C41.7976 23.882 43.0165 24.0223 43.4311 24.8216C43.8457 25.6209 43.3454 26.8662 42.2835 27.5487Z" fill="#7927FF"/>
<path d="M35.4195 62.2993C34.7715 62.2993 34.1456 62.2183 33.5418 62.0563C32.9381 61.8943 32.441 61.6836 32.0508 61.4244L32.8902 59.3345C33.2584 59.5694 33.667 59.7597 34.1162 59.9055C34.5727 60.0433 35.0145 60.1121 35.4416 60.1121C35.6919 60.1121 35.8871 60.0959 36.027 60.0635C36.1742 60.023 36.281 59.9704 36.3473 59.9055C36.4135 59.8326 36.4467 59.7476 36.4467 59.6504C36.4467 59.4965 36.3694 59.375 36.2147 59.2858C36.0601 59.1967 35.8539 59.1238 35.5962 59.0671C35.3459 59.0023 35.0697 58.9375 34.7678 58.8727C34.4659 58.7998 34.1604 58.7067 33.8511 58.5932C33.5492 58.4798 33.2694 58.33 33.0117 58.1437C32.7613 57.9573 32.5588 57.7143 32.4042 57.4146C32.2496 57.1068 32.1723 56.726 32.1723 56.2724C32.1723 55.7459 32.3048 55.2679 32.5699 54.8386C32.8423 54.4012 33.2436 54.0528 33.7738 53.7936C34.3113 53.5344 34.9777 53.4048 35.7729 53.4048C36.2957 53.4048 36.8111 53.4655 37.3192 53.587C37.8273 53.7086 38.2838 53.8949 38.6888 54.146L37.9046 56.2238C37.5217 56.0132 37.1499 55.8552 36.7891 55.7499C36.4356 55.6446 36.0895 55.592 35.7508 55.592C35.5005 55.592 35.3017 55.6163 35.1544 55.6649C35.0071 55.7135 34.9004 55.7783 34.8341 55.8593C34.7752 55.9403 34.7457 56.0294 34.7457 56.1266C34.7457 56.2724 34.8231 56.3899 34.9777 56.479C35.1323 56.56 35.3348 56.6288 35.5852 56.6855C35.8429 56.7422 36.1227 56.803 36.4246 56.8678C36.7338 56.9326 37.0394 57.0217 37.3413 57.1351C37.6432 57.2485 37.9193 57.3984 38.1697 57.5847C38.4274 57.771 38.6336 58.014 38.7882 58.3138C38.9428 58.6135 39.0201 58.9861 39.0201 59.4317C39.0201 59.9501 38.8839 60.428 38.6115 60.8655C38.3464 61.2948 37.9488 61.6431 37.4186 61.9105C36.8885 62.1697 36.2221 62.2993 35.4195 62.2993Z" fill="white"/>
<path d="M42.1925 62.1049L39.7185 53.5992H42.4024L44.4015 60.7804H43.054L45.1747 53.5992H47.5714L49.5485 60.7804H48.2562L50.3437 53.5992H52.8178L50.3437 62.1049H47.5493L45.9368 56.2238H46.6878L44.9869 62.1049H42.1925Z" fill="white"/>
<path d="M52.7185 62.1049L56.0983 53.5992H58.6607L62.0405 62.1049H59.3455L56.8493 54.9601H57.8655L55.3693 62.1049H52.7185ZM54.7287 60.6225L55.3914 58.5568H58.9479L59.6106 60.6225H54.7287Z" fill="white"/>
<path d="M62.8982 62.1049V53.5992H66.6204C67.342 53.5992 67.9642 53.7288 68.487 53.988C69.0171 54.2473 69.4258 54.6199 69.713 55.1059C70.0001 55.5839 70.1437 56.1509 70.1437 56.8071C70.1437 57.4632 70.0001 58.0303 69.713 58.5082C69.4258 58.9861 69.0171 59.3588 68.487 59.6261C67.9642 59.8853 67.342 60.0149 66.6204 60.0149H64.3451L65.5049 58.7877V62.1049H62.8982ZM65.5049 59.1036L64.3451 57.8034H66.4547C66.8155 57.8034 67.0806 57.7143 67.25 57.5361C67.4267 57.3579 67.515 57.1149 67.515 56.8071C67.515 56.4992 67.4267 56.2562 67.25 56.078C67.0806 55.8998 66.8155 55.8107 66.4547 55.8107H64.3451L65.5049 54.5105V59.1036Z" fill="white"/>
<path d="M75.6017 62.2993C74.9759 62.2993 74.3942 62.1899 73.8566 61.9712C73.3265 61.7525 72.8663 61.4447 72.476 61.0477C72.0858 60.6427 71.7802 60.1688 71.5593 59.6261C71.3457 59.0833 71.239 58.492 71.239 57.852C71.239 57.204 71.3457 56.6126 71.5593 56.078C71.7802 55.5353 72.0858 55.0654 72.476 54.6685C72.8663 54.2635 73.3265 53.9516 73.8566 53.7329C74.3942 53.5141 74.9759 53.4048 75.6017 53.4048C76.235 53.4048 76.8167 53.5141 77.3468 53.7329C77.877 53.9516 78.3372 54.2635 78.7274 54.6685C79.1177 55.0654 79.4196 55.5353 79.6331 56.078C79.854 56.6126 79.9645 57.204 79.9645 57.852C79.9645 58.492 79.854 59.0833 79.6331 59.6261C79.4196 60.1688 79.1177 60.6427 78.7274 61.0477C78.3372 61.4447 77.877 61.7525 77.3468 61.9712C76.8167 62.1899 76.235 62.2993 75.6017 62.2993ZM75.6017 59.9785C75.8447 59.9785 76.0693 59.9298 76.2755 59.8326C76.489 59.7354 76.6731 59.5977 76.8277 59.4195C76.9897 59.2332 77.1149 59.0104 77.2032 58.7512C77.2916 58.4839 77.3358 58.1842 77.3358 57.852C77.3358 57.5199 77.2916 57.2242 77.2032 56.965C77.1149 56.6977 76.9897 56.4749 76.8277 56.2967C76.6731 56.1104 76.489 55.9686 76.2755 55.8714C76.0693 55.7742 75.8447 55.7256 75.6017 55.7256C75.3587 55.7256 75.1305 55.7742 74.9169 55.8714C74.7108 55.9686 74.5267 56.1104 74.3647 56.2967C74.2101 56.4749 74.0886 56.6977 74.0002 56.965C73.9119 57.2242 73.8677 57.5199 73.8677 57.852C73.8677 58.1842 73.9119 58.4839 74.0002 58.7512C74.0886 59.0104 74.2101 59.2332 74.3647 59.4195C74.5267 59.5977 74.7108 59.7354 74.9169 59.8326C75.1305 59.9298 75.3587 59.9785 75.6017 59.9785Z" fill="white"/>
<path d="M81.3523 62.1049V53.5992H83.4951L87.4271 58.7755H86.433V53.5992H88.9734V62.1049H86.8306L82.8986 56.9286H83.8927V62.1049H81.3523Z" fill="white"/>
<path d="M94.4072 62.1048L97.8532 56.807L97.8422 58.8119L94.5066 53.5991H97.4335L99.3774 56.7584L98.1294 56.7705L100.029 53.5991H102.835L99.4989 58.7025V56.7098L103 62.1048H100.018L98.0741 58.7997L99.278 58.7876L97.3783 62.1048H94.4072Z" fill="white"/>
<path d="M90.8291 62.1048V53.5991H93.4357V62.1048H90.8291Z" fill="#EFF312"/>
<defs>
<linearGradient id="paint0_linear_691_2684" x1="33.1828" y1="48.6164" x2="71.1168" y2="67.5359" gradientUnits="userSpaceOnUse">
<stop stop-color="#7927FF"/>
<stop offset="1" stop-color="#232323" stop-opacity="0"/>
</linearGradient>
</defs>
</svg>
