<svg width="75" height="102" viewBox="0 0 75 102" fill="none" xmlns="http://www.w3.org/2000/svg">
<g clip-path="url(#clip0_1581_427)">
<path d="M75 98.6C75.0003 99.0466 74.9123 99.4888 74.741 99.9014C74.5698 100.314 74.3187 100.689 74.0021 101.005C73.6855 101.321 73.3095 101.571 72.8958 101.742C72.4821 101.912 72.0387 102 71.5909 102H3.40909C2.96133 102 2.51791 101.912 2.10419 101.742C1.69046 101.571 1.31454 101.321 0.99793 101.005C0.681316 100.689 0.430214 100.314 0.258982 99.9014C0.0877493 99.4888 -0.000254887 99.0466 5.54491e-07 98.6C5.54491e-07 88.6809 3.95088 79.1681 10.9835 72.1542C18.0161 65.1404 27.5544 61.2 37.5 61.2C47.4456 61.2 56.9839 65.1404 64.0165 72.1542C71.0491 79.1681 75 88.6809 75 98.6ZM37.5 13.6C33.4545 13.6 29.4998 14.7964 26.1361 17.038C22.7723 19.2796 20.1506 22.4656 18.6025 26.1933C17.0543 29.9209 16.6492 34.0226 17.4385 37.9798C18.2277 41.9371 20.1758 45.572 23.0365 48.425C25.8971 51.278 29.5417 53.2209 33.5095 54.008C37.4773 54.7952 41.59 54.3912 45.3276 52.8471C49.0652 51.3031 52.2598 48.6884 54.5073 45.3336C56.7549 41.9789 57.9545 38.0347 57.9545 34C57.9486 28.5914 55.7917 23.406 51.957 19.5816C48.1223 15.7571 42.9231 13.6059 37.5 13.6ZM6.81818 44.2C8.62576 44.1977 10.3586 43.4805 11.6368 42.2057C12.9149 40.931 13.634 39.2028 13.6364 37.4V30.6C13.6364 28.7965 12.918 27.0669 11.6394 25.7917C10.3607 24.5164 8.62648 23.8 6.81818 23.8C5.00989 23.8 3.27566 24.5164 1.997 25.7917C0.718342 27.0669 5.54491e-07 28.7965 5.54491e-07 30.6V37.4C0.00234583 39.2028 0.721442 40.931 1.99959 42.2057C3.27774 43.4805 5.01061 44.1977 6.81818 44.2ZM37.5 6.8C42.0824 6.80466 46.5896 7.96159 50.6049 10.1638C54.6203 12.366 58.014 15.5425 60.4723 19.3993C62.4267 18.0789 64.6934 17.2912 67.0474 17.1143C64.0735 11.916 59.7738 7.59466 54.5845 4.58893C49.3952 1.58319 43.501 0 37.5 0C31.499 0 25.6048 1.58319 20.4155 4.58893C15.2262 7.59466 10.9265 11.916 7.95259 17.1143C10.3066 17.2912 12.5733 18.0789 14.5277 19.3993C16.986 15.5425 20.3797 12.366 24.3951 10.1638C28.4104 7.96159 32.9176 6.80466 37.5 6.8ZM68.1818 23.8C66.3742 23.8023 64.6414 24.5195 63.3632 25.7943C62.0851 27.069 61.366 28.7972 61.3636 30.6V37.4C61.3655 38.5347 61.6524 39.6508 62.1982 40.6464C62.7439 41.642 63.5311 42.4853 64.4879 43.0993C63.9673 45.3418 62.7017 47.3427 60.8967 48.7771C59.0917 50.2114 56.8534 50.9948 54.5455 51C53.6413 51 52.7742 51.3582 52.1349 51.9958C51.4955 52.6335 51.1364 53.4983 51.1364 54.4C51.1364 55.3017 51.4955 56.1665 52.1349 56.8042C52.7742 57.4418 53.6413 57.8 54.5455 57.8C58.6052 57.7889 62.5274 56.3313 65.6047 53.6902C68.6819 51.0492 70.7116 47.3984 71.3277 43.3963C72.4306 42.8266 73.3559 41.9666 74.0033 40.9095C74.6507 39.8524 74.9954 38.6387 75 37.4V30.6C74.9977 28.7972 74.2786 27.069 73.0004 25.7943C71.7223 24.5195 69.9894 23.8023 68.1818 23.8Z" fill="url(#paint0_linear_1581_427)"/>
</g>
<defs>
<linearGradient id="paint0_linear_1581_427" x1="0" y1="0" x2="75.9384" y2="0.703486" gradientUnits="userSpaceOnUse">
<stop stop-color="#7927FF"/>
<stop offset="1" stop-color="#8B1EA6"/>
</linearGradient>
<clipPath id="clip0_1581_427">
<rect width="75" height="102" fill="white"/>
</clipPath>
</defs>
</svg>
